PathFileType	4	(X/Y/Z)	Kaydara	
DataRate	CameraRate	NumFrames	NumMarkers	Units	OrigDataRate	OrigDataStartFrame	OrigNumFrames	
240.00	240.00	4	72	mm	240.00	90	359	
Frame#	Time	Hips			RightUpLeg			RightLeg			RightFoot			RightFoot_End			LeftUpLeg			LeftLeg			LeftFoot			LeftFoot_End			Spine			Spine1			Spine2			Spine3			Neck			Head			Head_End			RightShoulder			RightArm			RightForeArm			RightHand			RightHandThumb1			RightHandThumb2			RightHandThumb3			RightHandThumb3_End			RightInHandIndex			RightHandIndex1			RightHandIndex2			RightHandIndex3			RightHandIndex3_End			RightInHandMiddle			RightHandMiddle1			RightHandMiddle2			RightHandMiddle3			RightHandMiddle3_End			RightInHandRing			RightHandRing1			RightHandRing2			RightHandRing3			RightHandRing3_End			RightInHandPinky			RightHandPinky1			RightHandPinky2			RightHandPinky3			RightHandPinky3_End			LeftShoulder			LeftArm			LeftForeArm			LeftHand			LeftHandThumb1			LeftHandThumb2			LeftHandThumb3			LeftHandThumb3_End			LeftInHandIndex			LeftHandIndex1			LeftHandIndex2			LeftHandIndex3			LeftHandIndex3_End			LeftInHandMiddle			LeftHandMiddle1			LeftHandMiddle2			LeftHandMiddle3			LeftHandMiddle3_End			LeftInHandRing			LeftHandRing1			LeftHandRing2			LeftHandRing3			LeftHandRing3_End			LeftInHandPinky			LeftHandPinky1			LeftHandPinky2			LeftHandPinky3			LeftHandPinky3_End			
		X1	Y1	Z1	X2	Y2	Z2	X3	Y3	Z3	X4	Y4	Z4	X5	Y5	Z5	X6	Y6	Z6	X7	Y7	Z7	X8	Y8	Z8	X9	Y9	Z9	X10	Y10	Z10	X11	Y11	Z11	X12	Y12	Z12	X13	Y13	Z13	X14	Y14	Z14	X15	Y15	Z15	X16	Y16	Z16	X17	Y17	Z17	X18	Y18	Z18	X19	Y19	Z19	X20	Y20	Z20	X21	Y21	Z21	X22	Y22	Z22	X23	Y23	Z23	X24	Y24	Z24	X25	Y25	Z25	X26	Y26	Z26	X27	Y27	Z27	X28	Y28	Z28	X29	Y29	Z29	X30	Y30	Z30	X31	Y31	Z31	X32	Y32	Z32	X33	Y33	Z33	X34	Y34	Z34	X35	Y35	Z35	X36	Y36	Z36	X37	Y37	Z37	X38	Y38	Z38	X39	Y39	Z39	X40	Y40	Z40	X41	Y41	Z41	X42	Y42	Z42	X43	Y43	Z43	X44	Y44	Z44	X45	Y45	Z45	X46	Y46	Z46	X47	Y47	Z47	X48	Y48	Z48	X49	Y49	Z49	X50	Y50	Z50	X51	Y51	Z51	X52	Y52	Z52	X53	Y53	Z53	X54	Y54	Z54	X55	Y55	Z55	X56	Y56	Z56	X57	Y57	Z57	X58	Y58	Z58	X59	Y59	Z59	X60	Y60	Z60	X61	Y61	Z61	X62	Y62	Z62	X63	Y63	Z63	X64	Y64	Z64	X65	Y65	Z65	X66	Y66	Z66	X67	Y67	Z67	X68	Y68	Z68	X69	Y69	Z69	X70	Y70	Z70	X71	Y71	Z71	X72	Y72	Z72	

90	0.371	6198.941	914.58397	126.699	6252.8170323871045	895.3216997091142	52.75570019643956	6157.658283397813	498.22831780891477	-41.02816411838405	6143.32764163301	106.65622516772052	-116.78379968298577	5991.705299300717	29.481485513129748	-29.64279613171305	6159.58909318478	907.9113725709644	212.2630982096512	6069.424053397476	505.94726596809153	287.86580169625205	5995.506352185485	81.3697798835115	376.5071056825899	5874.038088618759	-1.185421502973401	254.16014693921852	6131.391178838825	1031.0932872319165	78.16846499658988	6068.279221634134	1085.4543304719643	28.117863743908853	5999.731016013969	1134.828414221481	-27.618165350037746	5930.809417958932	1170.5636890983237	-86.04811520712923	5856.1003314145	1209.3501187305956	-146.79967009312304	5786.515202013109	1245.2236429663437	-199.5377069761492	5648.883692716601	1324.524534763676	-209.77110300872025	5899.988730825695	1195.673865874007	-150.27216520583366	5951.8134581910745	1176.7681064606268	-257.5907308730722	6035.1184644488	937.5127760851425	-268.4464818352854	6041.134949939722	792.0863381847224	-421.6419111132481	6043.820516175997	801.2063945824544	-436.77238992453056	6034.348655298288	803.2695264855206	-453.30475464822416	6028.282157736615	801.3434646873967	-465.2733550204198	6023.677932483228	796.8609785826568	-475.6406918610062	6047.451407128715	789.6704655711887	-440.0896250374272	6052.634812109146	774.8818494105541	-468.68911758444165	6048.306364372716	766.2881780080957	-487.008637723693	6040.425801781156	765.7642648612721	-494.9387853733486	6030.402533447982	768.5810245482048	-499.16930095164867	6048.3345287387565	781.1195353367364	-440.2577342303847	6053.870208377492	762.0694798253794	-468.24419895623106	6049.23681217246	751.6138896980234	-488.1618808734567	6039.772277291731	750.4644290455614	-497.69447970787246	6028.825947280151	753.2949648576847	-502.30649536599634	6048.911254145693	775.413520553783	-439.67143186182926	6054.621866249937	753.2642706329133	-464.31632381066106	6050.665499599294	743.0796113064773	-481.55810200510626	6041.579803499133	741.4018349135666	-490.6900880259464	6031.3081488136095	743.7936046574719	-494.9967044412657	6048.755626089343	769.5976293763658	-437.97222672661974	6054.184551581392	745.5507333281452	-459.6210737780203	6051.119025339087	735.8204331333689	-473.13505029491034	6044.541504257567	733.8348714911267	-479.65441880630294	6035.4710482652345	735.515178964136	-483.38792022726716	5861.799895450915	1197.4809158730561	-101.82176426588893	5815.907255434619	1148.069062899688	-2.0840197779856293	5943.514527386962	988.392970434042	-141.21361718038926	6038.565559477275	862.2125050734901	-333.71160705407505	6056.5942916101085	870.8522263838834	-346.32894455497603	6085.363980965207	860.8864328763799	-357.13237207302643	6105.620333157234	850.7576468479785	-365.97093077657973	6122.696356253651	839.5859489066271	-374.46424332102345	6058.3488664201595	861.1344613731968	-353.0895090351851	6092.402354871622	843.675804106149	-383.7325886556265	6119.797932404275	826.612874862165	-400.3093676085741	6136.036859655769	817.2600034840748	-404.5600568945857	6148.942986263353	810.3652701387683	-403.9940034994585	6057.940821860648	852.8360869625582	-355.3740068730199	6090.933804669442	831.3202453612389	-386.4993891151403	6120.668148526835	811.6567373535155	-404.78406033767715	6140.1831869144025	799.8716389821894	-410.0064463913782	6154.267576730204	792.0839015088218	-409.4328166126735	6056.754224018552	847.4443768167114	-356.2689465520425	6085.20667120046	823.5563093669674	-385.12440986842137	6110.908354010976	805.3836024243121	-401.21209516764156	6129.618044682802	793.4668767468719	-406.3295133543205	6142.806839247728	785.8842506844911	-405.82806633030674	6054.63104618132	841.5344795806999	-355.9171229889178	6079.33112912667	816.0612284259563	-382.38724935130097	6099.452987380427	800.0001540410752	-395.3784694506248	6112.877829603941	790.578068260573	-399.16376775205924	6124.433143298007	783.4409861954696	-398.74985543889704
91	0.375	6198.941	914.58397	126.699	6252.870947199101	895.390938864333	52.782347166084435	6157.706535883239	498.29817646876484	-40.99602472168765	6143.313691473407	106.72444596779098	-116.72297615807055	5991.693813547209	29.55744994773173	-29.570892073972125	6159.538606354612	907.8410772340718	212.22968115754614	6069.391852248968	505.87761385152913	287.85708756585643	5995.500083493638	81.31371164749545	376.5790817042451	5874.02743667639	-1.233540112391768	254.23115962794148	6131.373505290716	1031.094763457349	78.19721564493227	6068.267125942942	1085.4827594151216	28.168970822002876	5999.734398446051	1134.8916005189208	-27.554664333326887	5930.847157018816	1170.6691287193612	-85.99819654822508	5856.171860475364	1209.4985862661067	-146.76282699157557	5786.612158671161	1245.403603827755	-199.51239448785668	5648.907742569667	1324.5819951798164	-209.6987268507486	5900.110824820433	1195.95330312749	-150.19467224035802	5952.375489019293	1177.76437885457	-257.51699755139094	6037.109842032359	938.8374405623342	-269.582721897131	6043.970716122775	795.9420290582693	-425.602173386514	6046.990761941396	805.7515724933511	-440.7098584644948	6037.6948975815385	808.2600324640918	-457.58447980752385	6031.723460804727	806.6089536433678	-469.84961740300923	6027.174955278364	802.3256446349734	-480.51394418286804	6050.566228206745	794.1779270564025	-444.2166587688829	6056.020049806697	780.1467609598552	-473.36022353247165	6051.81312795642	771.9466395868903	-492.14883817785255	6043.972950052811	771.563936705422	-500.3306642160721	6033.9593862447255	774.4277893314535	-504.7425413269875	6051.361965021808	785.4987002049936	-444.52839788919147	6057.114153464126	767.1180811172894	-473.1231979971141	6052.600875541418	757.0723801367258	-493.5700551830157	6043.179069303121	756.0839016419875	-503.4145962730613	6032.240443840613	758.9614042374565	-508.22908998688246	6051.870603341484	779.6839921009331	-444.0292561663279	6057.717757641575	758.0440738288487	-469.2937417424274	6053.85297256595	748.1956219753154	-487.0134793294125	6044.801527272231	746.6619448011191	-496.4552419942895	6034.533816504808	749.0925766511256	-500.9564484757493	6051.624327459369	773.710820795619	-442.4181336328918	6057.1245403903595	750.0386482277997	-464.6883035973958	6054.111290399758	740.5424941441591	-478.6084114736602	6047.5485651307645	738.6450714395132	-485.3650513177996	6038.4757401491715	740.3500393754827	-489.2774420757627	5861.795042444063	1197.4652335761925	-101.8159729242434	5815.63088613905	1147.4462099893694	-2.4485982958162964	5944.398327166754	989.2033230159843	-142.41998667610181	6039.853186546679	865.3422421501643	-336.4253911578676	6058.172159676898	874.5240442433562	-348.73470390206995	6087.030034088452	864.7760651183711	-359.37166972063187	6107.31759112109	854.7812848546455	-368.1591783452701	6124.3937868900275	843.7061768931757	-376.6654305827217	6059.86024524041	864.8294313416156	-355.7027250916811	6094.077961567462	848.0096687621432	-386.41903446236154	6121.506813924434	831.1948019821089	-403.0298837378103	6137.73382366309	821.8530929276895	-407.2339554379264	6150.60809340763	814.8711015142745	-406.5835841108682	6059.360475241418	856.451390452188	-358.1603177988476	6092.464049732844	835.5156719655218	-389.4507580368543	6122.221966184833	816.1100198135318	-407.79518766234014	6141.716514395583	804.3322313489516	-412.9721669953676	6155.763075680013	796.4460244554671	-412.3115457317093	6058.105540337034	850.9890996380379	-359.1762904569448	6086.59970278166	827.565541978829	-388.28652927524536	6112.308731634278	809.6035334674116	-404.4491132719653	6130.991647900273	797.6863972526228	-409.5348479478075	6144.141552175635	790.0076491243864	-408.9573478708711	6055.893660513156	844.9635323377497	-358.95703584197383	6080.579580322477	819.8519583260784	-385.74464005399244	6100.686540843644	803.935643831219	-398.83031167561506	6114.081801637708	794.5016685368773	-402.60917678256396	6125.596879792981	787.2727677177546	-402.1374915894265
92	0.379	6198.941	914.58397	126.699	6252.924779663623	895.4602482296199	52.809118515078325	6157.754537207595	498.36858079650483	-40.96542431829699	6143.29950945833	106.79330687879967	-116.66387926204534	5991.682084803063	29.634163177786288	-29.500640293532797	6159.488097258977	907.770632497501	212.196082566269	6069.359351125795	505.80773362591947	287.8473748974223	5995.4939219861435	81.25734834628122	376.6498162219539	5874.016913401886	-1.2819672872433312	254.30092018356368	6131.356302430054	1031.0965913014395	78.22621509774307	6068.255876288301	1085.512393228606	28.220798737344722	5999.738911694861	1134.956960836012	-27.489907766149738	5930.886033276617	1170.7776679191584	-85.94642349007515	5856.244537476473	1209.6510878749714	-146.72350887034068	5786.71027760079	1245.5883968361181	-199.4840557155115	5648.932705605708	1324.6440165161857	-209.62289545377766	5900.234023237567	1196.2365130539026	-150.11505836571533	5952.938365037156	1178.7651344666697	-257.4431007924876	6039.097681146196	940.1660678681015	-270.71722825161726	6046.797715284958	799.8147053261162	-429.56478823415097	6050.154526153663	810.3163357497746	-444.6526523947718	6041.0332004859465	813.2706227648584	-461.87205223958637	6035.155305215966	811.8948346813105	-474.4351936289813	6030.660821660294	807.8109253498515	-485.39748516087565	6053.673214986855	798.7053186343704	-448.3482487557473	6059.395950337454	785.4348788119653	-478.0381943847676	6055.308202806244	777.6292594083313	-497.29752884003096	6047.50675812067	777.387407819376	-505.7321108059196	6037.501404094149	780.2974149257996	-510.3262865803584	6054.380186321361	789.8975099647976	-448.8027504860261	6060.346671274006	772.1893689305784	-478.00766862535363	6055.950766671952	762.5545459337974	-498.98535270317495	6046.569610774201	761.726592555071	-509.14307756128176	6035.637012596127	764.6500234427134	-514.1610462829633	6054.819810114672	783.9738373183598	-448.3900961113911	6060.800747144398	762.8457817609768	-474.2751837020861	6057.024971615595	753.3343432877031	-492.47419285139597	6048.005677111282	751.9442947544995	-502.2268620454705	6037.740288035361	754.4127981803409	-506.92356392134485	6054.481784891053	777.8428690577971	-446.8662260789838	6060.050107159085	754.547470447738	-469.75812738524826	6057.086805741809	745.2860093600959	-484.0852142272364	6050.537214838412	743.4763347250552	-491.0798512851643	6041.460509202473	745.2050582645296	-495.17187680334496	5861.791376839126	1197.4532196722848	-101.8077619761415	5815.356098955231	1146.8253718196158	-2.810173696898378	5945.287925860918	990.0158807557839	-143.62300499120465	6041.132393587399	868.4796481841416	-339.13573637107	6059.743637091939	878.2068653904935	-351.13817668768775	6088.689875828362	868.6790034383965	-361.6072861825318	6109.008195344027	858.8196569595186	-370.3424791686023	6126.083709785391	847.8421791996782	-378.86036425513873	6061.363409347413	868.5351844669558	-358.31288159545716	6095.743463877358	852.3579758970118	-389.1011445491737	6123.204153142196	835.7931648321636	-405.74423367612735	6139.41889263024	826.4634127371237	-409.90037130355415	6152.261378615231	819.3945210990206	-409.16447199890047	6060.770431144873	860.0768457159578	-360.94276823252045	6093.981952196931	839.7244781795257	-392.39658876991433	6123.76168251973	820.5787610457372	-410.79867667016526	6143.235223972492	808.8091951813423	-415.92861169776677	6157.243992466127	800.8248880469345	-415.179650976454	6059.446156990914	854.5434399789805	-362.0792479617842	6087.978785873327	831.5868363325006	-391.44232382940646	6113.693438194856	813.8372353262479	-407.6778736150992	6132.348981048647	801.9205141664697	-412.7302908057999	6145.459980911802	794.1459651397961	-412.07544446439476	6057.144497191306	848.4014398967656	-361.99193490615096	6081.812599359841	823.6533332638616	-389.09487663703294	6101.903001066802	807.8829756243397	-402.2733005794903	6115.268107243281	798.4376299997722	-406.0444674261295	6126.742858923902	791.1171471560043	-405.5138216283025
93	0.383	6198.941	914.58397	126.699	6252.9785131284525	895.5296030036008	52.83600114590609	6157.802272836259	498.4395010827828	-40.93636098391927	6143.285090669406	106.86277730134523	-116.60651506013572	5991.670107813814	29.711592239662227	-29.432049502737954	6159.437581484898	907.7000634072333	212.1623176478747	6069.32654672465	505.7376532922422	287.83667288252815	5995.487848003237	81.20071474415731	376.71929788831096	5874.006500191528	-1.330679873115805	254.36941723795655	6131.339575730751	1031.0987708213827	78.25545460395466	6068.245478995744	1085.543217330498	28.273322202999886	5999.744560733023	1135.024462017713	-27.42393554088774	5930.9260455302165	1170.8892520860018	-85.89284219006566	5856.318355332951	1209.807547314661	-146.68176880285557	5786.8095479673275	1245.7779297062034	-199.45274980090196	5648.958604129305	1324.7105633829885	-209.54368986945667	5900.358299814804	1196.5233641120055	-150.03338956518266	5953.501898071485	1179.7699044633787	-257.36908574326776	6041.081107720068	941.4979451888502	-271.8495863576231	6049.614770134785	803.7023588324664	-433.52820442149863	6053.310431519292	814.8983264155542	-448.59921356185447	6044.362096046	818.2987482994904	-466.16574173614543	6038.576182020015	817.1984440860706	-479.0282121321545	6034.134007468056	813.3140772717039	-490.28930695886095	6056.7710443577635	803.2503005537419	-452.4827680639422	6062.761079822137	790.7434943711314	-482.72116835908594	6058.790114830232	783.3331577178309	-502.4526360724329	6051.025737675658	783.2317525395976	-511.1409289831568	6041.027094193176	786.1869784783014	-515.9182453386687	6057.387935403488	794.3136920615857	-453.0791123767307	6063.566432156001	777.2807472733127	-482.8956736358389	6059.285121130622	768.0576144986819	-504.4055987986036	6049.942524484829	767.3896786870962	-514.877598118074	6039.014273531709	770.3580048235993	-520.0999331602517	6057.7576663487325	788.280839717463	-452.7522411103137	6063.869603643063	767.6669343438458	-479.25868230643675	6060.180244732178	758.4931721474186	-497.93806225342576	6051.190993666754	757.2462387550484	-508.00261920415954	6040.926303797413	759.751631095354	-512.8956209676975	6057.326852069221	781.9916394458594	-451.31476222289984	6062.960121698354	759.0748893835911	-474.82854944339164	6060.044439231262	750.0485717533799	-489.56328412096775	6053.506323052708	748.3262317649845	-496.7965318627622	6044.424228986442	750.0778180564242	-501.0688459507537	5861.788915890606	1197.4448696129302	-101.79716728119621	5815.082996901487	1146.206821356375	-3.1686113669817075	5946.18275404029	990.8302127449084	-144.8223086009142	6042.402699609881	871.6231590661071	-341.84166285051293	6061.308105368188	881.898804575492	-353.5385299012515	6090.34288625108	872.5932127921801	-363.8384928621722	6110.691546686977	862.8706375600316	-372.52015128697644	6127.765561787719	851.9917664991052	-381.04837894970086	6062.857797166444	872.2498368650922	-360.9190631933074	6097.398295306385	856.7184840367524	-391.77801551593615	6124.889426225746	840.4055718611731	-408.45153481595395	6141.091577168153	831.0885488135889	-412.5584619723678	6153.902386347042	823.9331438582161	-411.7358761470578	6062.170189656999	863.7106234317405	-363.72037207253027	6095.487040687836	843.9445153831197	-395.33586860016635	6125.286880921106	825.0606571485894	-413.793527977522	6144.73894452815	813.300203445678	-418.8748249895182	6158.7099949247195	805.2181990298318	-418.03623100796466	6060.775617428602	858.1056152064539	-364.9767823816047	6089.34352618823	835.6181612903079	-394.5906882232259	6115.0621354871	818.0825507034348	-410.89727298841234	6133.689754238487	806.1670527557619	-415.91477598461296	6146.7618742938175	798.29705807145	-415.1813387050803	6058.383152355731	851.8464915486478	-365.0207271719864	6083.029870874456	827.4634555264659	-392.4367674415712	6103.102110350884	811.8401661029022	-405.706231633528	6116.436530134741	802.3839640732035	-409.468455296585	6127.870902262216	794.9721704103121	-408.877700115207
